<mxfile host="app.diagrams.net" agent="Mozilla/5.0 (Windows NT 10.0; Win64; x64) AppleWebKit/537.36 (KHTML, like Gecko) Chrome/132.0.0.0 Safari/537.36" version="26.0.14">
  <diagram id="prtHgNgQTEPvFCAcTncT" name="Page-1">
    <mxGraphModel dx="1034" dy="1589" grid="1" gridSize="10" guides="1" tooltips="1" connect="1" arrows="1" fold="1" page="1" pageScale="1" pageWidth="827" pageHeight="1169" math="0" shadow="0">
      <root>
        <mxCell id="0" />
        <mxCell id="1" parent="0" />
        <mxCell id="I5Wm0jQ6-HLd6gZ0V0kq-21" value="Orgchart" style="swimlane;startSize=20;horizontal=1;containerType=tree;newEdgeStyle={&quot;edgeStyle&quot;:&quot;elbowEdgeStyle&quot;,&quot;startArrow&quot;:&quot;none&quot;,&quot;endArrow&quot;:&quot;none&quot;};" vertex="1" parent="1">
          <mxGeometry x="10" y="-80" width="900" height="830" as="geometry" />
        </mxCell>
        <mxCell id="I5Wm0jQ6-HLd6gZ0V0kq-22" value="" style="edgeStyle=elbowEdgeStyle;elbow=vertical;sourcePerimeterSpacing=0;targetPerimeterSpacing=0;startArrow=none;endArrow=none;rounded=0;curved=0;" edge="1" parent="I5Wm0jQ6-HLd6gZ0V0kq-21" target="I5Wm0jQ6-HLd6gZ0V0kq-25">
          <mxGeometry relative="1" as="geometry">
            <mxPoint x="445" y="110" as="sourcePoint" />
            <Array as="points">
              <mxPoint x="340" y="125" />
            </Array>
          </mxGeometry>
        </mxCell>
        <mxCell id="I5Wm0jQ6-HLd6gZ0V0kq-23" value="" style="edgeStyle=elbowEdgeStyle;elbow=vertical;sourcePerimeterSpacing=0;targetPerimeterSpacing=0;startArrow=none;endArrow=none;rounded=0;curved=0;" edge="1" parent="I5Wm0jQ6-HLd6gZ0V0kq-21" source="I5Wm0jQ6-HLd6gZ0V0kq-24" target="I5Wm0jQ6-HLd6gZ0V0kq-32">
          <mxGeometry relative="1" as="geometry" />
        </mxCell>
        <UserObject label="&lt;b&gt;&lt;font style=&quot;font-size: 18px;&quot;&gt;基于AI大模型的预约式车货匹配系统技术架构&lt;/font&gt;&lt;/b&gt;" treeRoot="1" id="I5Wm0jQ6-HLd6gZ0V0kq-24">
          <mxCell style="whiteSpace=wrap;html=1;align=center;treeFolding=1;treeMoving=1;newEdgeStyle={&quot;edgeStyle&quot;:&quot;elbowEdgeStyle&quot;,&quot;startArrow&quot;:&quot;none&quot;,&quot;endArrow&quot;:&quot;none&quot;};" vertex="1" parent="I5Wm0jQ6-HLd6gZ0V0kq-21">
            <mxGeometry x="140" y="40" width="610" height="60" as="geometry" />
          </mxCell>
        </UserObject>
        <mxCell id="I5Wm0jQ6-HLd6gZ0V0kq-25" value="&lt;font style=&quot;font-size: 14px;&quot;&gt;&lt;b&gt;数据层&lt;/b&gt;&lt;/font&gt;" style="whiteSpace=wrap;html=1;align=center;verticalAlign=middle;treeFolding=1;treeMoving=1;newEdgeStyle={&quot;edgeStyle&quot;:&quot;elbowEdgeStyle&quot;,&quot;startArrow&quot;:&quot;none&quot;,&quot;endArrow&quot;:&quot;none&quot;};" vertex="1" parent="I5Wm0jQ6-HLd6gZ0V0kq-21">
          <mxGeometry x="120" y="150" width="140" height="50" as="geometry" />
        </mxCell>
        <mxCell id="I5Wm0jQ6-HLd6gZ0V0kq-29" value="&lt;b&gt;&lt;font style=&quot;font-size: 14px;&quot;&gt;服务层&lt;/font&gt;&lt;/b&gt;" style="whiteSpace=wrap;html=1;align=center;verticalAlign=middle;treeFolding=1;treeMoving=1;newEdgeStyle={&quot;edgeStyle&quot;:&quot;elbowEdgeStyle&quot;,&quot;startArrow&quot;:&quot;none&quot;,&quot;endArrow&quot;:&quot;none&quot;};" vertex="1" parent="I5Wm0jQ6-HLd6gZ0V0kq-21">
          <mxGeometry x="710" y="150" width="130" height="40" as="geometry" />
        </mxCell>
        <mxCell id="I5Wm0jQ6-HLd6gZ0V0kq-30" value="" style="elbow=vertical;sourcePerimeterSpacing=0;targetPerimeterSpacing=0;startArrow=none;endArrow=none;rounded=0;exitX=0.5;exitY=1;exitDx=0;exitDy=0;edgeStyle=orthogonalEdgeStyle;" edge="1" parent="I5Wm0jQ6-HLd6gZ0V0kq-21" source="I5Wm0jQ6-HLd6gZ0V0kq-24" target="I5Wm0jQ6-HLd6gZ0V0kq-29">
          <mxGeometry relative="1" as="geometry">
            <mxPoint x="310" y="100" as="sourcePoint" />
            <mxPoint x="380" y="140" as="targetPoint" />
          </mxGeometry>
        </mxCell>
        <mxCell id="I5Wm0jQ6-HLd6gZ0V0kq-32" value="&lt;font style=&quot;font-size: 14px;&quot;&gt;&lt;b&gt;模型层&lt;/b&gt;&lt;/font&gt;" style="whiteSpace=wrap;html=1;align=center;verticalAlign=middle;treeFolding=1;treeMoving=1;newEdgeStyle={&quot;edgeStyle&quot;:&quot;elbowEdgeStyle&quot;,&quot;startArrow&quot;:&quot;none&quot;,&quot;endArrow&quot;:&quot;none&quot;};" vertex="1" parent="I5Wm0jQ6-HLd6gZ0V0kq-21">
          <mxGeometry x="340" y="150" width="290" height="40" as="geometry" />
        </mxCell>
        <mxCell id="I5Wm0jQ6-HLd6gZ0V0kq-35" value="&lt;p class=&quot;MsoNormal&quot;&gt;&lt;span style=&quot;mso-spacerun:&#39;yes&#39;;font-family:宋体;mso-bidi-font-family:&#39;Times New Roman&#39;;&lt;br/&gt;color:rgb(0,0,255);font-size:10.5000pt;mso-font-kerning:1.0000pt;&quot;&gt;结构化数据&lt;/span&gt;&lt;/p&gt;" style="rounded=0;whiteSpace=wrap;html=1;" vertex="1" parent="I5Wm0jQ6-HLd6gZ0V0kq-21">
          <mxGeometry x="80" y="240" width="40" height="130" as="geometry" />
        </mxCell>
        <mxCell id="I5Wm0jQ6-HLd6gZ0V0kq-36" value="&lt;p class=&quot;MsoNormal&quot;&gt;&lt;span style=&quot;mso-spacerun:&#39;yes&#39;;font-family:宋体;mso-bidi-font-family:&#39;Times New Roman&#39;;&lt;br/&gt;color:rgb(0,0,255);font-size:10.5000pt;mso-font-kerning:1.0000pt;&quot;&gt;非结构化数据&lt;/span&gt;&lt;/p&gt;" style="rounded=0;whiteSpace=wrap;html=1;" vertex="1" parent="I5Wm0jQ6-HLd6gZ0V0kq-21">
          <mxGeometry x="160" y="240" width="40" height="130" as="geometry" />
        </mxCell>
        <mxCell id="I5Wm0jQ6-HLd6gZ0V0kq-37" value="&lt;p class=&quot;MsoNormal&quot;&gt;&lt;span style=&quot;mso-spacerun:&#39;yes&#39;;font-family:宋体;mso-bidi-font-family:&#39;Times New Roman&#39;;&lt;br/&gt;color:rgb(0,0,255);font-size:10.5000pt;mso-font-kerning:1.0000pt;&quot;&gt;实时数据流&lt;/span&gt;&lt;/p&gt;" style="rounded=0;whiteSpace=wrap;html=1;" vertex="1" parent="I5Wm0jQ6-HLd6gZ0V0kq-21">
          <mxGeometry x="240" y="240" width="40" height="130" as="geometry" />
        </mxCell>
        <mxCell id="I5Wm0jQ6-HLd6gZ0V0kq-38" value="&lt;p class=&quot;MsoNormal&quot;&gt;&lt;span style=&quot;mso-spacerun:&#39;yes&#39;;font-family:宋体;mso-bidi-font-family:&#39;Times New Roman&#39;;&lt;br/&gt;color:rgb(0,0,255);font-size:10.5000pt;mso-font-kerning:1.0000pt;&quot;&gt;&lt;font face=&quot;宋体&quot;&gt;语义&lt;br&gt;理解（&lt;/font&gt;&lt;font face=&quot;宋体&quot;&gt;NLP）&lt;/font&gt;&lt;/span&gt;&lt;/p&gt;" style="rounded=0;whiteSpace=wrap;html=1;" vertex="1" parent="I5Wm0jQ6-HLd6gZ0V0kq-21">
          <mxGeometry x="350" y="240" width="40" height="130" as="geometry" />
        </mxCell>
        <mxCell id="I5Wm0jQ6-HLd6gZ0V0kq-39" value="&lt;p class=&quot;MsoNormal&quot;&gt;&lt;span style=&quot;mso-spacerun:&#39;yes&#39;;font-family:宋体;mso-bidi-font-family:&#39;Times New Roman&#39;;&lt;br/&gt;color:rgb(0,0,255);font-size:10.5000pt;mso-font-kerning:1.0000pt;&quot;&gt;&lt;font face=&quot;宋体&quot;&gt;时空预测（&lt;/font&gt;&lt;font face=&quot;宋体&quot;&gt;Trans&lt;br&gt;former&lt;br&gt;+时空图网络）&lt;/font&gt;&lt;/span&gt;&lt;/p&gt;" style="rounded=0;whiteSpace=wrap;html=1;" vertex="1" parent="I5Wm0jQ6-HLd6gZ0V0kq-21">
          <mxGeometry x="420" y="240" width="50" height="130" as="geometry" />
        </mxCell>
        <mxCell id="I5Wm0jQ6-HLd6gZ0V0kq-40" value="&lt;p class=&quot;MsoNormal&quot;&gt;&lt;span style=&quot;mso-spacerun:&#39;yes&#39;;font-family:宋体;mso-bidi-font-family:&#39;Times New Roman&#39;;&lt;br/&gt;color:rgb(0,0,255);font-size:10.5000pt;mso-font-kerning:1.0000pt;&quot;&gt;动态定价（强化学习）&lt;/span&gt;&lt;/p&gt;" style="rounded=0;whiteSpace=wrap;html=1;" vertex="1" parent="I5Wm0jQ6-HLd6gZ0V0kq-21">
          <mxGeometry x="500" y="240" width="40" height="130" as="geometry" />
        </mxCell>
        <mxCell id="I5Wm0jQ6-HLd6gZ0V0kq-41" value="&lt;p class=&quot;MsoNormal&quot;&gt;&lt;span style=&quot;mso-spacerun:&#39;yes&#39;;font-family:宋体;mso-bidi-font-family:&#39;Times New Roman&#39;;&lt;br/&gt;color:rgb(0,0,255);font-size:10.5000pt;mso-font-kerning:1.0000pt;&quot;&gt;&lt;font face=&quot;宋体&quot;&gt;知识&lt;br&gt;图谱（&lt;/font&gt;&lt;font face=&quot;宋体&quot;&gt;KG）&lt;/font&gt;&lt;/span&gt;&lt;/p&gt;" style="rounded=0;whiteSpace=wrap;html=1;" vertex="1" parent="I5Wm0jQ6-HLd6gZ0V0kq-21">
          <mxGeometry x="580" y="240" width="40" height="130" as="geometry" />
        </mxCell>
        <mxCell id="I5Wm0jQ6-HLd6gZ0V0kq-42" value="&lt;p class=&quot;MsoNormal&quot;&gt;&lt;span style=&quot;mso-spacerun:&#39;yes&#39;;font-family:宋体;mso-bidi-font-family:&#39;Times New Roman&#39;;&lt;br/&gt;color:rgb(0,0,255);font-size:10.5000pt;mso-font-kerning:1.0000pt;&quot;&gt;多目标优化&lt;/span&gt;&lt;/p&gt;" style="rounded=0;whiteSpace=wrap;html=1;" vertex="1" parent="I5Wm0jQ6-HLd6gZ0V0kq-21">
          <mxGeometry x="710" y="240" width="40" height="130" as="geometry" />
        </mxCell>
        <mxCell id="I5Wm0jQ6-HLd6gZ0V0kq-43" value="&lt;p class=&quot;MsoNormal&quot;&gt;&lt;span style=&quot;mso-spacerun:&#39;yes&#39;;font-family:宋体;mso-bidi-font-family:&#39;Times New Roman&#39;;&lt;br/&gt;color:rgb(0,0,255);font-size:10.5000pt;mso-font-kerning:1.0000pt;&quot;&gt;弹性匹配策略&lt;/span&gt;&lt;/p&gt;" style="rounded=0;whiteSpace=wrap;html=1;" vertex="1" parent="I5Wm0jQ6-HLd6gZ0V0kq-21">
          <mxGeometry x="800" y="240" width="40" height="130" as="geometry" />
        </mxCell>
      </root>
    </mxGraphModel>
  </diagram>
</mxfile>
